<svg data-v-0dd9719b="" version="1.0" xmlns="http://www.w3.org/2000/svg" xmlns:xlink="http://www.w3.org/1999/xlink" width="100%" height="100%" viewBox="0 0 340.000000 250.000000" preserveAspectRatio="xMidYMid meet" color-interpolation-filters="sRGB" style="margin: auto;"> <rect data-v-0dd9719b="" x="0" y="0" width="100%" height="100%" fill="#fff" fill-opacity="1" class="background"></rect> <rect data-v-0dd9719b="" x="0" y="0" width="100%" height="100%" fill="url(#watermark)" fill-opacity="1" class="watermarklayer"></rect> <g data-v-0dd9719b="" fill="#333" class="icon-text-wrapper icon-svg-group iconsvg" transform="translate(48.344993591308594,100.63867187592041)"><g class="iconsvg-imagesvg" transform="translate(0,0)"><g><rect fill="#333" fill-opacity="0" stroke-width="2" x="0" y="0" width="60" height="48.72265441021227" class="image-rect"></rect> <svg x="0" y="0" width="60" height="48.72265441021227" filtersec="colorsb1795410931" class="image-svg-svg primary" style="overflow: visible;"><svg xmlns="http://www.w3.org/2000/svg" viewBox="0.21885693073272705 0.009949733503162861 121.42166137695312 98.60005187988281"><title>资源 132</title><path d="M44 27.88a20.28 20.28 0 0 1-3.4-10.95l-9 13.35L2.84 72.92a16.55 16.55 0 0 0 27.43 18.51l.87-1.28a1.3 1.3 0 0 1 .18-.23L58.6 49.45zM56.79.5c-.27.07-.56.14-.83.23s-.65.21-1 .33-.62.24-.93.37a17.83 17.83 0 0 0-2.52 1.41l-.42.3a3.58 3.58 0 0 0-.39.29c-.37.28-.51.39-.64.51-.39.33-.69.61-1 .9s-.56.59-.81.88-.4.48-.57.7-.45.59-.66.89a16.6 16.6 0 0 0 0 18.51l21.63 32a2.11 2.11 0 0 1 .18.32l6.47 9.55 15.38-25v-.05l3.63-5.89L79.25 14.3a2.43 2.43 0 0 1-.14-.2l-4.59-6.8a16.67 16.67 0 0 0-2-2.44c-.23-.23-.47-.47-.74-.7a18.83 18.83 0 0 0-1.72-1.34c-.19-.13-.43-.27-.67-.42s-.63-.38-.92-.53h-.08l-.19-.09c-.2-.1-.41-.21-.62-.3a17.31 17.31 0 0 0-2.84-1l-.92-.2c-.34-.05-.68-.11-1-.15s-.66-.07-1-.09a15.51 15.51 0 0 0-1.93 0q-.51 0-1 .09c-.32 0-.58.07-.85.12h-.26l-.62.14" fill="#333"></path><path d="M118.73 91.54a16.55 16.55 0 0 0 .08-18.63L96.68 40.13l-2.76 4.48-33.22 54h45.08a16.43 16.43 0 0 0 12.8-6.92" fill="#eb6621"></path></svg></svg> <!----></g></g> <g transform="translate(67,9.196328163146973)"><g data-gra="path-name" fill-rule="" class="tp-name iconsvg-namesvg"><g transform="scale(1)"><g><path d="M19.45-26.5L18.49-24.62Q18.31-24.32 18.11-24.16 17.9-24.01 17.58-24.01L17.58-24.01Q17.23-24.01 16.77-24.36 16.31-24.7 15.61-25.12 14.91-25.54 13.92-25.89 12.93-26.23 11.53-26.23L11.53-26.23Q10.2-26.23 9.19-25.88 8.17-25.52 7.48-24.91 6.8-24.3 6.46-23.47 6.11-22.65 6.11-21.69L6.11-21.69Q6.11-20.47 6.71-19.66 7.31-18.86 8.3-18.29 9.29-17.72 10.54-17.3 11.79-16.88 13.11-16.44 14.42-15.99 15.67-15.43 16.92-14.87 17.91-14.01 18.9-13.16 19.5-11.91 20.1-10.67 20.1-8.86L20.1-8.86Q20.1-6.95 19.45-5.26 18.8-3.58 17.55-2.34 16.29-1.1 14.47-0.39 12.65 0.33 10.33 0.33L10.33 0.33Q7.49 0.33 5.16-0.7 2.83-1.73 1.18-3.48L1.18-3.48 2.32-5.36Q2.48-5.58 2.72-5.73 2.95-5.89 3.24-5.89L3.24-5.89Q3.67-5.89 4.22-5.43 4.77-4.97 5.59-4.42 6.42-3.87 7.59-3.41 8.76-2.95 10.45-2.95L10.45-2.95Q11.85-2.95 12.95-3.34 14.05-3.73 14.82-4.43 15.58-5.13 15.99-6.11 16.4-7.09 16.4-8.29L16.4-8.29Q16.4-9.61 15.79-10.46 15.19-11.3 14.22-11.87 13.24-12.44 11.99-12.84 10.73-13.24 9.42-13.66 8.11-14.07 6.85-14.62 5.6-15.17 4.62-16.05 3.65-16.92 3.04-18.24 2.44-19.55 2.44-21.49L2.44-21.49Q2.44-23.03 3.04-24.48 3.65-25.93 4.79-27.05 5.93-28.17 7.61-28.84 9.29-29.51 11.47-29.51L11.47-29.51Q13.91-29.51 15.93-28.74 17.94-27.96 19.45-26.5L19.45-26.5ZM28.19 0L24.56 0 24.56-20.63 26.72-20.63Q27.49-20.63 27.7-19.88L27.7-19.88 27.96-17.76Q29.1-19.16 30.52-20.06 31.93-20.96 33.81-20.96L33.81-20.96Q35.91-20.96 37.2-19.8 38.49-18.64 39.06-16.66L39.06-16.66Q39.49-17.78 40.19-18.59 40.9-19.41 41.77-19.94 42.65-20.47 43.64-20.71 44.62-20.96 45.64-20.96L45.64-20.96Q47.27-20.96 48.54-20.44 49.82-19.92 50.7-18.92 51.59-17.92 52.06-16.47 52.53-15.01 52.53-13.14L52.53-13.14 52.53 0 48.9 0 48.9-13.14Q48.9-15.56 47.84-16.81 46.78-18.07 44.77-18.07L44.77-18.07Q43.87-18.07 43.07-17.75 42.26-17.43 41.65-16.82 41.04-16.21 40.68-15.29 40.33-14.36 40.33-13.14L40.33-13.14 40.33 0 36.7 0 36.7-13.14Q36.7-15.62 35.7-16.84 34.7-18.07 32.79-18.07L32.79-18.07Q31.45-18.07 30.3-17.34 29.14-16.62 28.19-15.38L28.19-15.38 28.19 0ZM58.41-20.63L62.04-20.63 62.04 0 58.41 0 58.41-20.63ZM62.85-27.11L62.85-27.11Q62.85-26.58 62.64-26.12 62.42-25.66 62.07-25.31 61.71-24.95 61.24-24.75 60.77-24.54 60.24-24.54L60.24-24.54Q59.71-24.54 59.26-24.75 58.8-24.95 58.44-25.31 58.09-25.66 57.88-26.12 57.68-26.58 57.68-27.11L57.68-27.11Q57.68-27.64 57.88-28.12 58.09-28.59 58.44-28.95 58.8-29.31 59.26-29.51 59.71-29.71 60.24-29.71L60.24-29.71Q60.77-29.71 61.24-29.51 61.71-29.31 62.07-28.95 62.42-28.59 62.64-28.12 62.85-27.64 62.85-27.11ZM68.84-30L72.46-30 72.46 0 68.84 0 68.84-30ZM87.03-20.96L87.03-20.96Q88.88-20.96 90.45-20.34 92.02-19.71 93.16-18.54 94.3-17.37 94.94-15.65 95.58-13.93 95.58-11.73L95.58-11.73Q95.58-10.88 95.4-10.59 95.21-10.31 94.7-10.31L94.7-10.31 80.98-10.31Q81.02-8.35 81.51-6.9 82-5.46 82.85-4.49 83.71-3.52 84.89-3.04 86.07-2.57 87.54-2.57L87.54-2.57Q88.9-2.57 89.89-2.88 90.88-3.2 91.59-3.56 92.3-3.93 92.78-4.25 93.26-4.56 93.6-4.56L93.6-4.56Q94.05-4.56 94.3-4.22L94.3-4.22 95.32-2.89Q94.64-2.08 93.71-1.48 92.77-0.88 91.7-0.49 90.63-0.1 89.49 0.09 88.35 0.29 87.23 0.29L87.23 0.29Q85.09 0.29 83.29-0.44 81.49-1.16 80.17-2.56 78.86-3.95 78.13-6.01 77.39-8.07 77.39-10.73L77.39-10.73Q77.39-12.89 78.05-14.77 78.72-16.64 79.96-18.01 81.2-19.39 82.99-20.17 84.79-20.96 87.03-20.96ZM87.11-18.29L87.11-18.29Q84.48-18.29 82.97-16.77 81.47-15.25 81.1-12.57L81.1-12.57 92.32-12.57Q92.32-13.83 91.98-14.88 91.63-15.93 90.96-16.69 90.29-17.45 89.32-17.87 88.35-18.29 87.11-18.29ZM97.8-29.19L120.65-29.19 120.65-25.87 111.22-25.87 111.22 0 107.27 0 107.27-25.87 97.8-25.87 97.8-29.19ZM128.13-20.96L128.13-20.96Q129.98-20.96 131.55-20.34 133.12-19.71 134.26-18.54 135.4-17.37 136.04-15.65 136.68-13.93 136.68-11.73L136.68-11.73Q136.68-10.88 136.5-10.59 136.31-10.31 135.8-10.31L135.8-10.31 122.08-10.31Q122.12-8.35 122.61-6.9 123.1-5.46 123.95-4.49 124.81-3.52 125.99-3.04 127.17-2.57 128.64-2.57L128.64-2.57Q130-2.57 130.99-2.88 131.98-3.2 132.69-3.56 133.4-3.93 133.88-4.25 134.36-4.56 134.7-4.56L134.7-4.56Q135.15-4.56 135.4-4.22L135.4-4.22 136.42-2.89Q135.74-2.08 134.81-1.48 133.87-0.88 132.8-0.49 131.73-0.1 130.59 0.09 129.45 0.29 128.33 0.29L128.33 0.29Q126.19 0.29 124.39-0.44 122.59-1.16 121.27-2.56 119.96-3.95 119.23-6.01 118.49-8.07 118.49-10.73L118.49-10.73Q118.49-12.89 119.15-14.77 119.82-16.64 121.06-18.01 122.3-19.39 124.09-20.17 125.89-20.96 128.13-20.96ZM128.21-18.29L128.21-18.29Q125.58-18.29 124.07-16.77 122.57-15.25 122.2-12.57L122.2-12.57 133.42-12.57Q133.42-13.83 133.08-14.88 132.73-15.93 132.06-16.69 131.38-17.45 130.42-17.87 129.45-18.29 128.21-18.29ZM156.33-18.27L155.38-16.97Q155.21-16.74 155.05-16.62 154.89-16.5 154.58-16.5L154.58-16.5Q154.28-16.5 153.92-16.75 153.56-17.01 153.01-17.31 152.46-17.62 151.68-17.87 150.9-18.13 149.76-18.13L149.76-18.13Q148.25-18.13 147.09-17.59 145.93-17.05 145.14-16.03 144.36-15.01 143.96-13.56 143.56-12.12 143.56-10.33L143.56-10.33Q143.56-8.45 143.99-7 144.42-5.54 145.19-4.55 145.97-3.56 147.08-3.04 148.19-2.53 149.57-2.53L149.57-2.53Q150.9-2.53 151.75-2.84 152.61-3.16 153.18-3.54 153.75-3.93 154.11-4.25 154.48-4.56 154.85-4.56L154.85-4.56Q155.32-4.56 155.54-4.22L155.54-4.22 156.56-2.89Q155.21-1.24 153.2-0.48 151.18 0.29 148.94 0.29L148.94 0.29Q147.01 0.29 145.35-0.43 143.69-1.14 142.46-2.49 141.24-3.85 140.54-5.82 139.84-7.8 139.84-10.33L139.84-10.33Q139.84-12.63 140.48-14.58 141.12-16.54 142.35-17.95 143.58-19.37 145.4-20.16 147.21-20.96 149.55-20.96L149.55-20.96Q151.71-20.96 153.38-20.25 155.05-19.55 156.33-18.27L156.33-18.27ZM163.95 0L160.33 0 160.33-30 163.95-30 163.95-17.86Q165.27-19.27 166.88-20.11 168.49-20.96 170.59-20.96L170.59-20.96Q172.28-20.96 173.57-20.4 174.87-19.84 175.73-18.81 176.6-17.78 177.05-16.33 177.49-14.89 177.49-13.14L177.49-13.14 177.49 0 173.87 0 173.87-13.14Q173.87-15.48 172.8-16.77 171.73-18.07 169.53-18.07L169.53-18.07Q167.92-18.07 166.53-17.29 165.13-16.52 163.95-15.19L163.95-15.19 163.95 0Z" transform="translate(-1.1800000667572021, 30)"></path></g> <!----> <!----> <!----> <!----> <!----> <!----> <!----></g></g> <!----></g></g><defs v-gra="od"></defs></svg>